<mxfile host="Electron" agent="Mozilla/5.0 (X11; Linux x86_64) AppleWebKit/537.36 (KHTML, like Gecko) draw.io/26.0.16 Chrome/132.0.6834.196 Electron/34.2.0 Safari/537.36" version="26.0.16">
  <diagram name="Page-1" id="UF5TTPkOo4tB0B7_BQ10">
    <mxGraphModel dx="2740" dy="1132" grid="1" gridSize="10" guides="1" tooltips="1" connect="1" arrows="1" fold="1" page="1" pageScale="1" pageWidth="850" pageHeight="1100" math="1" shadow="0">
      <root>
        <mxCell id="0" />
        <mxCell id="1" parent="0" />
        <mxCell id="-6LExr9zQhmZYvDBVCgw-63" value="" style="rounded=1;whiteSpace=wrap;html=1;arcSize=3;dashed=1;" vertex="1" parent="1">
          <mxGeometry x="150" y="380" width="510" height="820" as="geometry" />
        </mxCell>
        <mxCell id="-6LExr9zQhmZYvDBVCgw-73" style="edgeStyle=orthogonalEdgeStyle;rounded=0;orthogonalLoop=1;jettySize=auto;html=1;entryX=0;entryY=0.5;entryDx=0;entryDy=0;" edge="1" parent="1" source="-6LExr9zQhmZYvDBVCgw-1" target="-6LExr9zQhmZYvDBVCgw-72">
          <mxGeometry relative="1" as="geometry" />
        </mxCell>
        <mxCell id="-6LExr9zQhmZYvDBVCgw-1" value="Conv [k1, s1]" style="rounded=1;whiteSpace=wrap;html=1;" vertex="1" parent="1">
          <mxGeometry x="170" y="210" width="100" height="40" as="geometry" />
        </mxCell>
        <mxCell id="-6LExr9zQhmZYvDBVCgw-77" style="edgeStyle=orthogonalEdgeStyle;rounded=0;orthogonalLoop=1;jettySize=auto;html=1;entryX=0;entryY=0.5;entryDx=0;entryDy=0;" edge="1" parent="1" source="-6LExr9zQhmZYvDBVCgw-2">
          <mxGeometry relative="1" as="geometry">
            <mxPoint x="390.00000000001864" y="320" as="targetPoint" />
          </mxGeometry>
        </mxCell>
        <mxCell id="-6LExr9zQhmZYvDBVCgw-2" value="Conv [k1, s1]" style="rounded=1;whiteSpace=wrap;html=1;" vertex="1" parent="1">
          <mxGeometry x="170" y="300" width="100" height="40" as="geometry" />
        </mxCell>
        <mxCell id="-6LExr9zQhmZYvDBVCgw-67" style="edgeStyle=orthogonalEdgeStyle;rounded=0;orthogonalLoop=1;jettySize=auto;html=1;entryX=0;entryY=0.5;entryDx=0;entryDy=0;" edge="1" parent="1" source="-6LExr9zQhmZYvDBVCgw-3" target="-6LExr9zQhmZYvDBVCgw-66">
          <mxGeometry relative="1" as="geometry" />
        </mxCell>
        <mxCell id="-6LExr9zQhmZYvDBVCgw-3" value="Conv [k1, s1]" style="rounded=1;whiteSpace=wrap;html=1;" vertex="1" parent="1">
          <mxGeometry x="170" y="130" width="100" height="40" as="geometry" />
        </mxCell>
        <mxCell id="-6LExr9zQhmZYvDBVCgw-62" style="edgeStyle=orthogonalEdgeStyle;rounded=0;orthogonalLoop=1;jettySize=auto;html=1;entryX=0;entryY=0.5;entryDx=0;entryDy=0;" edge="1" parent="1" source="-6LExr9zQhmZYvDBVCgw-4" target="-6LExr9zQhmZYvDBVCgw-61">
          <mxGeometry relative="1" as="geometry" />
        </mxCell>
        <mxCell id="-6LExr9zQhmZYvDBVCgw-4" value="Conv [k1, s1]" style="rounded=1;whiteSpace=wrap;html=1;" vertex="1" parent="1">
          <mxGeometry x="170" y="50" width="100" height="40" as="geometry" />
        </mxCell>
        <mxCell id="-6LExr9zQhmZYvDBVCgw-5" value="Stage 4 (B, H/8, W/8, 8C)" style="text;html=1;align=center;verticalAlign=middle;whiteSpace=wrap;rounded=0;" vertex="1" parent="1">
          <mxGeometry x="10" y="300" width="140" height="40" as="geometry" />
        </mxCell>
        <mxCell id="-6LExr9zQhmZYvDBVCgw-7" value="Stage 3 (B, H/4, W/4, 4C)" style="text;html=1;align=center;verticalAlign=middle;whiteSpace=wrap;rounded=0;" vertex="1" parent="1">
          <mxGeometry x="10" y="210" width="140" height="40" as="geometry" />
        </mxCell>
        <mxCell id="-6LExr9zQhmZYvDBVCgw-8" value="Stage 2 (B, H/2, W/2, 2C)" style="text;html=1;align=center;verticalAlign=middle;whiteSpace=wrap;rounded=0;" vertex="1" parent="1">
          <mxGeometry x="10" y="130" width="140" height="40" as="geometry" />
        </mxCell>
        <mxCell id="-6LExr9zQhmZYvDBVCgw-9" value="Stage 1 (B, H, W, C)" style="text;html=1;align=center;verticalAlign=middle;whiteSpace=wrap;rounded=0;" vertex="1" parent="1">
          <mxGeometry x="10" y="50" width="130" height="40" as="geometry" />
        </mxCell>
        <mxCell id="-6LExr9zQhmZYvDBVCgw-13" value="\(x \in [1, 2, ...,H]\)" style="text;html=1;align=center;verticalAlign=middle;whiteSpace=wrap;rounded=0;" vertex="1" parent="1">
          <mxGeometry x="522.5" y="520" width="110" height="30" as="geometry" />
        </mxCell>
        <mxCell id="-6LExr9zQhmZYvDBVCgw-14" value="\(y \in [1, 2, ...,W]\)" style="text;html=1;align=center;verticalAlign=middle;whiteSpace=wrap;rounded=0;" vertex="1" parent="1">
          <mxGeometry x="522.5" y="410" width="110" height="30" as="geometry" />
        </mxCell>
        <mxCell id="-6LExr9zQhmZYvDBVCgw-15" value="(B, H/8, W/8, C\(_f\))" style="text;html=1;align=center;verticalAlign=middle;whiteSpace=wrap;rounded=0;" vertex="1" parent="1">
          <mxGeometry x="278.75" y="300" width="102.5" height="20" as="geometry" />
        </mxCell>
        <mxCell id="-6LExr9zQhmZYvDBVCgw-16" value="(B, H/4, W/4, C\(_f\))" style="text;html=1;align=center;verticalAlign=middle;whiteSpace=wrap;rounded=0;" vertex="1" parent="1">
          <mxGeometry x="270" y="210" width="120" height="20" as="geometry" />
        </mxCell>
        <mxCell id="-6LExr9zQhmZYvDBVCgw-17" value="(B, H/4, W/4, C\(_f\))" style="text;html=1;align=center;verticalAlign=middle;whiteSpace=wrap;rounded=0;" vertex="1" parent="1">
          <mxGeometry x="271.25" y="130" width="112.5" height="10" as="geometry" />
        </mxCell>
        <mxCell id="-6LExr9zQhmZYvDBVCgw-18" value="(B, H/4, W/4, C\(_f\))" style="text;html=1;align=center;verticalAlign=middle;whiteSpace=wrap;rounded=0;" vertex="1" parent="1">
          <mxGeometry x="275" y="50" width="102.5" height="20" as="geometry" />
        </mxCell>
        <mxCell id="-6LExr9zQhmZYvDBVCgw-19" value="" style="endArrow=classic;html=1;rounded=0;" edge="1" parent="1">
          <mxGeometry width="50" height="50" relative="1" as="geometry">
            <mxPoint x="277.5" y="540" as="sourcePoint" />
            <mxPoint x="517.5" y="540" as="targetPoint" />
          </mxGeometry>
        </mxCell>
        <mxCell id="-6LExr9zQhmZYvDBVCgw-20" value="" style="endArrow=classic;html=1;rounded=0;" edge="1" parent="1">
          <mxGeometry width="50" height="50" relative="1" as="geometry">
            <mxPoint x="277.5" y="540" as="sourcePoint" />
            <mxPoint x="277.5" y="1190" as="targetPoint" />
          </mxGeometry>
        </mxCell>
        <mxCell id="-6LExr9zQhmZYvDBVCgw-21" value="" style="endArrow=classic;html=1;rounded=0;" edge="1" parent="1">
          <mxGeometry width="50" height="50" relative="1" as="geometry">
            <mxPoint x="277.5" y="540" as="sourcePoint" />
            <mxPoint x="527.5" y="410" as="targetPoint" />
          </mxGeometry>
        </mxCell>
        <mxCell id="-6LExr9zQhmZYvDBVCgw-22" value="\(2 \pi \frac{1}{H}\)" style="text;html=1;align=center;verticalAlign=middle;whiteSpace=wrap;rounded=0;" vertex="1" parent="1">
          <mxGeometry x="287.5" y="540" width="60" height="30" as="geometry" />
        </mxCell>
        <mxCell id="-6LExr9zQhmZYvDBVCgw-23" value="\(2 \pi \frac{2}{H}\)" style="text;html=1;align=center;verticalAlign=middle;whiteSpace=wrap;rounded=0;" vertex="1" parent="1">
          <mxGeometry x="337.5" y="540" width="60" height="30" as="geometry" />
        </mxCell>
        <mxCell id="-6LExr9zQhmZYvDBVCgw-24" value="\(2 \pi \frac{x}{H}\)" style="text;html=1;align=center;verticalAlign=middle;whiteSpace=wrap;rounded=0;" vertex="1" parent="1">
          <mxGeometry x="407.5" y="540" width="60" height="30" as="geometry" />
        </mxCell>
        <mxCell id="-6LExr9zQhmZYvDBVCgw-25" value="\(2 \pi \frac{H}{H}\)" style="text;html=1;align=center;verticalAlign=middle;whiteSpace=wrap;rounded=0;" vertex="1" parent="1">
          <mxGeometry x="467.5" y="540" width="60" height="30" as="geometry" />
        </mxCell>
        <mxCell id="-6LExr9zQhmZYvDBVCgw-26" value="\(2 \pi \frac{1}{W}\)" style="text;html=1;align=center;verticalAlign=middle;whiteSpace=wrap;rounded=0;" vertex="1" parent="1">
          <mxGeometry x="257.5" y="500" width="60" height="30" as="geometry" />
        </mxCell>
        <mxCell id="-6LExr9zQhmZYvDBVCgw-27" value="\(2 \pi \frac{2}{W}\)" style="text;html=1;align=center;verticalAlign=middle;whiteSpace=wrap;rounded=0;" vertex="1" parent="1">
          <mxGeometry x="297.5" y="480" width="60" height="30" as="geometry" />
        </mxCell>
        <mxCell id="-6LExr9zQhmZYvDBVCgw-28" value="\(2 \pi \frac{y}{W}\)" style="text;html=1;align=center;verticalAlign=middle;whiteSpace=wrap;rounded=0;" vertex="1" parent="1">
          <mxGeometry x="357.5" y="450" width="60" height="30" as="geometry" />
        </mxCell>
        <mxCell id="-6LExr9zQhmZYvDBVCgw-29" value="\(2 \pi \frac{W}{W}\)" style="text;html=1;align=center;verticalAlign=middle;whiteSpace=wrap;rounded=0;" vertex="1" parent="1">
          <mxGeometry x="437.5" y="410" width="60" height="30" as="geometry" />
        </mxCell>
        <mxCell id="-6LExr9zQhmZYvDBVCgw-30" value="\(sin(10000^\frac{2 \times 0}{E/2})\)" style="text;html=1;align=center;verticalAlign=middle;whiteSpace=wrap;rounded=0;fontColor=#7EA6E0;" vertex="1" parent="1">
          <mxGeometry x="197.5" y="565" width="60" height="30" as="geometry" />
        </mxCell>
        <mxCell id="-6LExr9zQhmZYvDBVCgw-32" value="\(cos(10000^\frac{2 \times 0}{E/2})\)" style="text;html=1;align=center;verticalAlign=middle;whiteSpace=wrap;rounded=0;fontColor=#7EA6E0;" vertex="1" parent="1">
          <mxGeometry x="197.5" y="610" width="60" height="30" as="geometry" />
        </mxCell>
        <mxCell id="-6LExr9zQhmZYvDBVCgw-33" value="\(sin(10000^\frac{2 \times e_x}{E/2})\)" style="text;html=1;align=center;verticalAlign=middle;whiteSpace=wrap;rounded=0;fontColor=#7EA6E0;" vertex="1" parent="1">
          <mxGeometry x="197.5" y="680" width="60" height="30" as="geometry" />
        </mxCell>
        <mxCell id="-6LExr9zQhmZYvDBVCgw-34" value="\(cos(10000^\frac{2 \times e_x}{E/2})\)" style="text;html=1;align=center;verticalAlign=middle;whiteSpace=wrap;rounded=0;fontColor=#7EA6E0;" vertex="1" parent="1">
          <mxGeometry x="197.5" y="720" width="60" height="30" as="geometry" />
        </mxCell>
        <mxCell id="-6LExr9zQhmZYvDBVCgw-35" value="\(e_x \in [0, 1, ...,E/2]\)" style="text;html=1;align=center;verticalAlign=middle;whiteSpace=wrap;rounded=0;fontColor=#7EA6E0;" vertex="1" parent="1">
          <mxGeometry x="307.5" y="700" width="110" height="30" as="geometry" />
        </mxCell>
        <mxCell id="-6LExr9zQhmZYvDBVCgw-36" value="&amp;nbsp;..." style="text;html=1;align=center;verticalAlign=middle;whiteSpace=wrap;rounded=0;" vertex="1" parent="1">
          <mxGeometry x="397.5" y="545" width="20" height="20" as="geometry" />
        </mxCell>
        <mxCell id="-6LExr9zQhmZYvDBVCgw-37" value="&amp;nbsp;..." style="text;html=1;align=center;verticalAlign=middle;whiteSpace=wrap;rounded=0;" vertex="1" parent="1">
          <mxGeometry x="450" y="545" width="27.5" height="25" as="geometry" />
        </mxCell>
        <mxCell id="-6LExr9zQhmZYvDBVCgw-38" value="&amp;nbsp;..." style="text;html=1;align=center;verticalAlign=middle;whiteSpace=wrap;rounded=0;" vertex="1" parent="1">
          <mxGeometry x="347.5" y="475" width="20" height="20" as="geometry" />
        </mxCell>
        <mxCell id="-6LExr9zQhmZYvDBVCgw-39" value="&amp;nbsp;..." style="text;html=1;align=center;verticalAlign=middle;whiteSpace=wrap;rounded=0;" vertex="1" parent="1">
          <mxGeometry x="417.5" y="440" width="20" height="20" as="geometry" />
        </mxCell>
        <mxCell id="-6LExr9zQhmZYvDBVCgw-40" value="\(sin(10000^\frac{2 \times (E/2-1)}{E/2})\)" style="text;html=1;align=center;verticalAlign=middle;whiteSpace=wrap;rounded=0;fontColor=#7EA6E0;" vertex="1" parent="1">
          <mxGeometry x="187.5" y="790" width="60" height="30" as="geometry" />
        </mxCell>
        <mxCell id="-6LExr9zQhmZYvDBVCgw-41" value="\(cos(10000^\frac{2 \times (E/2-1)}{E/2})\)" style="text;html=1;align=center;verticalAlign=middle;whiteSpace=wrap;rounded=0;fontColor=#7EA6E0;" vertex="1" parent="1">
          <mxGeometry x="187.5" y="830" width="60" height="30" as="geometry" />
        </mxCell>
        <mxCell id="-6LExr9zQhmZYvDBVCgw-42" value="&amp;nbsp;..." style="text;html=1;align=center;verticalAlign=middle;whiteSpace=wrap;rounded=0;" vertex="1" parent="1">
          <mxGeometry x="247.5" y="650" width="20" height="20" as="geometry" />
        </mxCell>
        <mxCell id="-6LExr9zQhmZYvDBVCgw-43" value="&amp;nbsp;..." style="text;html=1;align=center;verticalAlign=middle;whiteSpace=wrap;rounded=0;" vertex="1" parent="1">
          <mxGeometry x="247.5" y="760" width="20" height="20" as="geometry" />
        </mxCell>
        <mxCell id="-6LExr9zQhmZYvDBVCgw-44" value="\(e_y \in [0, 1, ...,E/2]\)" style="text;html=1;align=center;verticalAlign=middle;whiteSpace=wrap;rounded=0;fontColor=#FFB570;" vertex="1" parent="1">
          <mxGeometry x="312.5" y="1020" width="110" height="30" as="geometry" />
        </mxCell>
        <mxCell id="-6LExr9zQhmZYvDBVCgw-47" value="\(sin(10000^\frac{2 \times e_y}{E/2})\)" style="text;html=1;align=center;verticalAlign=middle;whiteSpace=wrap;rounded=0;fontColor=#FFB570;" vertex="1" parent="1">
          <mxGeometry x="197.5" y="990" width="60" height="30" as="geometry" />
        </mxCell>
        <mxCell id="-6LExr9zQhmZYvDBVCgw-48" value="\(cos(10000^\frac{2 \times e_y}{E/2})\)" style="text;html=1;align=center;verticalAlign=middle;whiteSpace=wrap;rounded=0;fontColor=#FFB570;" vertex="1" parent="1">
          <mxGeometry x="197.5" y="1030" width="60" height="30" as="geometry" />
        </mxCell>
        <mxCell id="-6LExr9zQhmZYvDBVCgw-53" value="\(sin(10000^\frac{2 \times 0}{E/2})\)" style="text;html=1;align=center;verticalAlign=middle;whiteSpace=wrap;rounded=0;fontColor=#FFB570;" vertex="1" parent="1">
          <mxGeometry x="197.5" y="880" width="60" height="30" as="geometry" />
        </mxCell>
        <mxCell id="-6LExr9zQhmZYvDBVCgw-54" value="\(cos(10000^\frac{2 \times 0}{E/2})\)" style="text;html=1;align=center;verticalAlign=middle;whiteSpace=wrap;rounded=0;fontColor=#FFB570;" vertex="1" parent="1">
          <mxGeometry x="197.5" y="925" width="60" height="30" as="geometry" />
        </mxCell>
        <mxCell id="-6LExr9zQhmZYvDBVCgw-57" value="\(sin(10000^\frac{2 \times (E/2-1)}{E/2})\)" style="text;html=1;align=center;verticalAlign=middle;whiteSpace=wrap;rounded=0;fontColor=#FFB570;" vertex="1" parent="1">
          <mxGeometry x="187.5" y="1105" width="60" height="30" as="geometry" />
        </mxCell>
        <mxCell id="-6LExr9zQhmZYvDBVCgw-58" value="\(cos(10000^\frac{2 \times (E/2-1)}{E/2})\)" style="text;html=1;align=center;verticalAlign=middle;whiteSpace=wrap;rounded=0;fontColor=#FFB570;" vertex="1" parent="1">
          <mxGeometry x="187.5" y="1145" width="60" height="30" as="geometry" />
        </mxCell>
        <mxCell id="-6LExr9zQhmZYvDBVCgw-59" value="&amp;nbsp;..." style="text;html=1;align=center;verticalAlign=middle;whiteSpace=wrap;rounded=0;" vertex="1" parent="1">
          <mxGeometry x="247.5" y="965" width="20" height="20" as="geometry" />
        </mxCell>
        <mxCell id="-6LExr9zQhmZYvDBVCgw-60" value="&amp;nbsp;..." style="text;html=1;align=center;verticalAlign=middle;whiteSpace=wrap;rounded=0;" vertex="1" parent="1">
          <mxGeometry x="247.5" y="1075" width="20" height="20" as="geometry" />
        </mxCell>
        <mxCell id="-6LExr9zQhmZYvDBVCgw-92" style="edgeStyle=orthogonalEdgeStyle;rounded=0;orthogonalLoop=1;jettySize=auto;html=1;" edge="1" parent="1" source="-6LExr9zQhmZYvDBVCgw-61">
          <mxGeometry relative="1" as="geometry">
            <mxPoint x="640" y="70" as="targetPoint" />
          </mxGeometry>
        </mxCell>
        <mxCell id="-6LExr9zQhmZYvDBVCgw-61" value="+" style="ellipse;whiteSpace=wrap;html=1;aspect=fixed;" vertex="1" parent="1">
          <mxGeometry x="390" y="60" width="20" height="20" as="geometry" />
        </mxCell>
        <mxCell id="-6LExr9zQhmZYvDBVCgw-65" value="2D sinusoidal positional encoding" style="text;html=1;align=center;verticalAlign=middle;whiteSpace=wrap;rounded=0;" vertex="1" parent="1">
          <mxGeometry x="297.5" y="380" width="220" height="30" as="geometry" />
        </mxCell>
        <mxCell id="-6LExr9zQhmZYvDBVCgw-91" style="edgeStyle=orthogonalEdgeStyle;rounded=0;orthogonalLoop=1;jettySize=auto;html=1;" edge="1" parent="1" source="-6LExr9zQhmZYvDBVCgw-66">
          <mxGeometry relative="1" as="geometry">
            <mxPoint x="640" y="150" as="targetPoint" />
          </mxGeometry>
        </mxCell>
        <mxCell id="-6LExr9zQhmZYvDBVCgw-66" value="+" style="ellipse;whiteSpace=wrap;html=1;aspect=fixed;" vertex="1" parent="1">
          <mxGeometry x="390" y="140" width="20" height="20" as="geometry" />
        </mxCell>
        <mxCell id="-6LExr9zQhmZYvDBVCgw-69" style="edgeStyle=orthogonalEdgeStyle;rounded=0;orthogonalLoop=1;jettySize=auto;html=1;entryX=0.5;entryY=0;entryDx=0;entryDy=0;" edge="1" parent="1" source="-6LExr9zQhmZYvDBVCgw-68" target="-6LExr9zQhmZYvDBVCgw-61">
          <mxGeometry relative="1" as="geometry" />
        </mxCell>
        <mxCell id="-6LExr9zQhmZYvDBVCgw-68" value="2D SPE" style="rounded=1;whiteSpace=wrap;html=1;" vertex="1" parent="1">
          <mxGeometry x="378.75" y="10" width="42.5" height="30" as="geometry" />
        </mxCell>
        <mxCell id="-6LExr9zQhmZYvDBVCgw-71" style="edgeStyle=orthogonalEdgeStyle;rounded=0;orthogonalLoop=1;jettySize=auto;html=1;entryX=0.5;entryY=0;entryDx=0;entryDy=0;" edge="1" parent="1" source="-6LExr9zQhmZYvDBVCgw-70" target="-6LExr9zQhmZYvDBVCgw-66">
          <mxGeometry relative="1" as="geometry" />
        </mxCell>
        <mxCell id="-6LExr9zQhmZYvDBVCgw-70" value="2D SPE" style="rounded=1;whiteSpace=wrap;html=1;" vertex="1" parent="1">
          <mxGeometry x="378.75" y="90" width="42.5" height="30" as="geometry" />
        </mxCell>
        <mxCell id="-6LExr9zQhmZYvDBVCgw-86" style="edgeStyle=orthogonalEdgeStyle;rounded=0;orthogonalLoop=1;jettySize=auto;html=1;entryX=0;entryY=0.5;entryDx=0;entryDy=0;" edge="1" parent="1" source="-6LExr9zQhmZYvDBVCgw-72" target="-6LExr9zQhmZYvDBVCgw-85">
          <mxGeometry relative="1" as="geometry" />
        </mxCell>
        <mxCell id="-6LExr9zQhmZYvDBVCgw-72" value="+" style="ellipse;whiteSpace=wrap;html=1;aspect=fixed;" vertex="1" parent="1">
          <mxGeometry x="390" y="220" width="20" height="20" as="geometry" />
        </mxCell>
        <mxCell id="-6LExr9zQhmZYvDBVCgw-75" style="edgeStyle=orthogonalEdgeStyle;rounded=0;orthogonalLoop=1;jettySize=auto;html=1;entryX=0.5;entryY=0;entryDx=0;entryDy=0;" edge="1" parent="1" source="-6LExr9zQhmZYvDBVCgw-74" target="-6LExr9zQhmZYvDBVCgw-72">
          <mxGeometry relative="1" as="geometry" />
        </mxCell>
        <mxCell id="-6LExr9zQhmZYvDBVCgw-74" value="2D SPE" style="rounded=1;whiteSpace=wrap;html=1;" vertex="1" parent="1">
          <mxGeometry x="378.75" y="170" width="42.5" height="30" as="geometry" />
        </mxCell>
        <mxCell id="-6LExr9zQhmZYvDBVCgw-78" value="2D SPE" style="rounded=1;whiteSpace=wrap;html=1;" vertex="1" parent="1">
          <mxGeometry x="378.75" y="260" width="42.5" height="30" as="geometry" />
        </mxCell>
        <mxCell id="-6LExr9zQhmZYvDBVCgw-79" style="edgeStyle=orthogonalEdgeStyle;rounded=0;orthogonalLoop=1;jettySize=auto;html=1;entryX=0.504;entryY=0.058;entryDx=0;entryDy=0;entryPerimeter=0;" edge="1" parent="1" source="-6LExr9zQhmZYvDBVCgw-78" target="-6LExr9zQhmZYvDBVCgw-80">
          <mxGeometry relative="1" as="geometry">
            <mxPoint x="399.94000000000005" y="310.88" as="targetPoint" />
            <Array as="points" />
          </mxGeometry>
        </mxCell>
        <mxCell id="-6LExr9zQhmZYvDBVCgw-82" style="edgeStyle=orthogonalEdgeStyle;rounded=0;orthogonalLoop=1;jettySize=auto;html=1;entryX=0.5;entryY=1;entryDx=0;entryDy=0;" edge="1" parent="1" source="-6LExr9zQhmZYvDBVCgw-80" target="-6LExr9zQhmZYvDBVCgw-81">
          <mxGeometry relative="1" as="geometry" />
        </mxCell>
        <mxCell id="-6LExr9zQhmZYvDBVCgw-83" style="edgeStyle=orthogonalEdgeStyle;rounded=0;orthogonalLoop=1;jettySize=auto;html=1;exitX=1;exitY=0.5;exitDx=0;exitDy=0;" edge="1" parent="1" source="-6LExr9zQhmZYvDBVCgw-80">
          <mxGeometry relative="1" as="geometry">
            <mxPoint x="640.0000000000005" y="319.94444444444446" as="targetPoint" />
          </mxGeometry>
        </mxCell>
        <mxCell id="-6LExr9zQhmZYvDBVCgw-80" value="+" style="ellipse;whiteSpace=wrap;html=1;aspect=fixed;" vertex="1" parent="1">
          <mxGeometry x="390" y="310" width="20" height="20" as="geometry" />
        </mxCell>
        <mxCell id="-6LExr9zQhmZYvDBVCgw-87" style="edgeStyle=orthogonalEdgeStyle;rounded=0;orthogonalLoop=1;jettySize=auto;html=1;exitX=0.5;exitY=0;exitDx=0;exitDy=0;entryX=0.5;entryY=1;entryDx=0;entryDy=0;" edge="1" parent="1" source="-6LExr9zQhmZYvDBVCgw-81" target="-6LExr9zQhmZYvDBVCgw-85">
          <mxGeometry relative="1" as="geometry" />
        </mxCell>
        <mxCell id="-6LExr9zQhmZYvDBVCgw-81" value="Nearest interpolation" style="rounded=1;whiteSpace=wrap;html=1;" vertex="1" parent="1">
          <mxGeometry x="446.25" y="260" width="122.5" height="30" as="geometry" />
        </mxCell>
        <mxCell id="-6LExr9zQhmZYvDBVCgw-84" value="(B, H/4, W/4, C\(_f\))" style="text;html=1;align=center;verticalAlign=middle;whiteSpace=wrap;rounded=0;" vertex="1" parent="1">
          <mxGeometry x="507.5" y="240" width="102.5" height="20" as="geometry" />
        </mxCell>
        <mxCell id="-6LExr9zQhmZYvDBVCgw-90" style="edgeStyle=orthogonalEdgeStyle;rounded=0;orthogonalLoop=1;jettySize=auto;html=1;" edge="1" parent="1" source="-6LExr9zQhmZYvDBVCgw-85">
          <mxGeometry relative="1" as="geometry">
            <mxPoint x="640" y="230" as="targetPoint" />
          </mxGeometry>
        </mxCell>
        <mxCell id="-6LExr9zQhmZYvDBVCgw-85" value="+" style="ellipse;whiteSpace=wrap;html=1;aspect=fixed;" vertex="1" parent="1">
          <mxGeometry x="497.5" y="220" width="20" height="20" as="geometry" />
        </mxCell>
        <mxCell id="-6LExr9zQhmZYvDBVCgw-93" value="(B, H/8, W/8, C\(_f\))" style="text;html=1;align=center;verticalAlign=middle;whiteSpace=wrap;rounded=0;" vertex="1" parent="1">
          <mxGeometry x="580" y="290" width="102.5" height="20" as="geometry" />
        </mxCell>
        <mxCell id="-6LExr9zQhmZYvDBVCgw-94" value="(B, H/4, W/4, C\(_f\))" style="text;html=1;align=center;verticalAlign=middle;whiteSpace=wrap;rounded=0;" vertex="1" parent="1">
          <mxGeometry x="571.25" y="200" width="120" height="20" as="geometry" />
        </mxCell>
        <mxCell id="-6LExr9zQhmZYvDBVCgw-95" value="(B, H/4, W/4, C\(_f\))" style="text;html=1;align=center;verticalAlign=middle;whiteSpace=wrap;rounded=0;" vertex="1" parent="1">
          <mxGeometry x="575" y="130" width="112.5" height="10" as="geometry" />
        </mxCell>
        <mxCell id="-6LExr9zQhmZYvDBVCgw-96" value="(B, H/4, W/4, C\(_f\))" style="text;html=1;align=center;verticalAlign=middle;whiteSpace=wrap;rounded=0;" vertex="1" parent="1">
          <mxGeometry x="580" y="40" width="102.5" height="20" as="geometry" />
        </mxCell>
        <mxCell id="-6LExr9zQhmZYvDBVCgw-97" value="Discard the lowest resolution features in SAM2.1-L" style="text;html=1;align=center;verticalAlign=middle;whiteSpace=wrap;rounded=0;" vertex="1" parent="1">
          <mxGeometry x="561.25" y="330" width="140" height="40" as="geometry" />
        </mxCell>
      </root>
    </mxGraphModel>
  </diagram>
</mxfile>
